# File produced by Open Asset Import Library (http://www.assimp.sf.net)
# (assimp v3.1.187496374)

mtllib 20mm_cube.obj.mtl

# 8 vertex positions
v  20 0 0
v  0 -20 0
v  0 0 0
v  20 -20 0
v  20 -20 20
v  0 -20 20
v  20 0 20
v  0 0 20

# 0 UV coordinates

# 6 vertex normals
vn 0 0 -1
vn -0 -1 -0
vn 1 0 0
vn 0 0 1
vn -1 0 0
vn 0 1 0

# Mesh 'model' with 12 faces
g model
usemtl DefaultMaterial
f  1//1 2//1 3//1
f  2//1 1//1 4//1
f  5//2 2//2 4//2
f  2//2 5//2 6//2
f  1//3 5//3 4//3
f  5//3 1//3 7//3
f  5//4 8//4 6//4
f  8//4 5//4 7//4
f  8//5 2//5 6//5
f  2//5 8//5 3//5
f  8//6 1//6 3//6
f  1//6 8//6 7//6

